<svg xmlns="http://www.w3.org/2000/svg" id="Layer_1" viewBox="0 0 405.7 70.4"><defs><style>      .st0 {        fill: #231f20;      }    </style></defs><path class="st0" d="M123.4,54.8L84.6,4.6c0-.1-.2-.2-.3-.3-1.6-1.8-3.9-2.7-6.3-2.7-4.7,0-8.5,3.8-8.5,8.5v57.6h10.3V15.3l38.8,50.1c0,.1.2.2.3.3,1.6,1.8,3.9,2.7,6.3,2.7,4.7,0,8.5-3.8,8.5-8.5V2.3h-10.3v52.5h0Z"></path><path class="st0" d="M2.4,16.7v36.5c0,8,6.5,14.4,14.4,14.4h45.2v-10.3H16.8c-2.3,0-4.2-1.9-4.2-4.2v-12.9h49.3v-10.3H12.7v-13.3c0-2.3,1.9-4.2,4.2-4.2h45.2V2.3H16.8c-8,0-14.4,6.5-14.4,14.4Z"></path><path class="st0" d="M274.6,16.7v36.5c0,8,6.5,14.4,14.4,14.4h45.2v-10.3h-45.2c-2.3,0-4.2-1.9-4.2-4.2V16.7c0-2.3,1.9-4.2,4.2-4.2h45.2V2.3h-45.2c-8,0-14.4,6.5-14.4,14.4Z"></path><path class="st0" d="M207.6,16.7v36.5c0,8,6.5,14.4,14.4,14.4h45.2v-10.3h-45.2c-2.3,0-4.2-1.9-4.2-4.2v-12.9h49.3v-10.3h-49.3v-13.3c0-2.3,1.9-4.2,4.2-4.2h45.2V2.3h-45.2c-8,0-14.4,6.5-14.4,14.4Z"></path><polygon class="st0" points="392.1 2.3 392.1 30 350.7 30 350.7 2.3 340.4 2.3 340.4 67.6 350.7 67.6 350.7 40.2 392.1 40.2 392.1 67.6 402.4 67.6 402.4 2.3 392.1 2.3"></polygon><polygon class="st0" points="140.1 12.6 166.3 12.6 166.3 67.6 176.6 67.6 176.6 12.6 202.5 12.6 202.5 2.3 140.1 2.3 140.1 12.6"></polygon></svg>