<svg viewBox="0 0 400 400" xmlns="http://www.w3.org/2000/svg">
  <defs>
    <clipPath id="globe-clip-w"><circle cx="200" cy="200" r="125"/></clipPath>
  </defs>

  <circle cx="200" cy="200" r="145" fill="none" stroke="white" stroke-width="2"/>

  <g clip-path="url(#globe-clip-w)">
    <g transform="translate(-310,-48) scale(0.32)" fill="white">
      <path d="M1651.272,342.891c-0.28-10.663-3.05-21.072-5.905-31.361c-15.94-1.818-32.151-2.753-48.584-2.753c-35.346,0-69.69,4.325-102.513,12.473c-1.538,4.631-2.574,9.372-2.277,14.215c0.484,7.995,5.735,16.314,13.654,17.52c2.337,0.357,4.784,0.093,7.01,0.884c4.367,1.538,6.483,6.695,6.355,11.318c-0.136,4.631-1.954,9.023-3.059,13.518c-5.022,20.469,6.831,43.724,26.348,51.685c7.545,3.084,17.945,3.101,21.981-3.985c1.181-2.073,1.615-4.486,2.354-6.763c4.631-14.368,20.256-21.828,34.709-26.195c14.453-4.367,30.359-7.893,40.215-19.33C1648.85,365.67,1651.561,354.039,1651.272,342.891z"/>
      <path d="M1526.285,856.61c-10.035-2.829-20.078-5.667-30.121-8.497c-8.607-2.43-15.77-8.497-19.406-16.662c-4.308-9.652-9.95-18.191-18.565-23.425c-17.597-10.689-48.72-28.557-69.299-31.718c-20.571-3.161-42.203-2.413-61.397,5.633c-3.322,1.385-6.814,3.025-10.366,2.43c-5.005-0.833-8.208-5.761-10.086-10.485c-1.869-4.716-3.212-9.941-6.95-13.382c-3.849-3.535-10.154-5.183-11.377-10.273c-0.935-3.925,1.818-7.723,2.354-11.725c1.053-7.826-6.823-14.393-14.64-15.54c-7.817-1.147-15.642,1.351-23.459,2.515c-0.059,0.009-0.127,0.017-0.187,0.026c-10.74,1.555-20.188-7.265-19.517-18.098c0.909-14.665,6.568-29.721,17.248-37.47c15.447-11.207,40.104-8.76,50.844,7.01c2.982,4.401,4.903,9.559,9.499,12.711c2.099,1.436,4.665,2.141,7.137,1.572c5.659-1.3,7.01-7.876,6.237-13.178c-0.688-4.775-2.507-9.559-1.58-14.291c2.065-10.578,15.158-13.765,24.7-18.769c15.991-8.386,24.768-25.685,36.391-39.51c15.413-18.336,36.026-30.614,58.287-40.019c5.531-2.337,7.061-9.372,3.11-13.884c-2.71-3.093-4.164-6.942-1.767-11.335c2.838-5.208,9.661-6.712,15.498-7.792c7.443-1.368,15.141-1.98,22.091-4.971c6.942-2.991,13.212-9.1,13.697-16.645c0.535-8.284-5.684-15.201-10.247-22.134c-6.653-10.12-10.256-21.904-15.583-32.789c-5.327-10.876-13.136-21.463-24.538-25.567c-12.099-4.342-26.127-0.246-35.924,8.089c-9.788,8.327-15.846,20.299-19.687,32.568c-1.827,5.837-3.237,11.878-6.228,17.206c-3,5.336-7.961,9.992-14.028,10.782c-8.981,1.164-16.637-6.092-22.712-12.813c-5.226-5.786-10.621-12.057-11.929-19.746c-1.801-10.612,4.826-21.046,13.212-27.784c17.461-14.02,43.291-17.435,56.061-35.839c3.28-4.733,6.967-11.029,12.677-10.273c3.39,0.45,5.795,3.373,8.463,5.506c9.55,7.63,25.006,4.852,32.729-4.614c7.732-9.474,7.995-23.723,2.294-34.531c-4.563-8.667-12.414-15.201-21.344-19.355c-149.389,60.395-256.532,203.394-264.8,372.368c5.676,10.111,12.32,19.653,20.375,27.98c12.439,12.856,28.54,22.678,46.239,25.32c6.67,0.994,13.552,0.986,19.993,3.016c7.766,2.447,14.308,7.681,20.426,13.059c7.358,6.466,14.419,13.34,22.533,18.829c4.699,3.186,9.831,5.897,15.226,7.639c5.285,1.699,8.684,6.916,8.123,12.448c-1.385,13.578-5.285,27.036-7.622,40.572c-3.186,18.404-2.897,39.119,8.998,53.529c15.065,18.251,44.922,21.692,55.297,42.968c5.021,10.281,4.07,22.329,3.433,33.757c-2.49,45.024,8.964,81.755,22.508,122.268c12.49,6.203,25.329,11.802,38.481,16.756c-4.648-23.009-7.248-47.352,4.248-67.328c8.344-14.495,23.052-24.445,31.565-38.847c9.032-15.269,10.629-34.768,22.601-47.862c8.08-8.828,20.095-13.731,26.867-23.595c6.398-9.312,6.967-21.361,11.139-31.863c2.846-7.146,7.333-13.51,10.629-20.46c3.297-6.942,5.387-14.988,3.042-22.312C1553.203,865.37,1538.835,860.153,1526.285,856.61z"/>
      <path d="M2020.492,711.998c-5.497,0.093-10.952-0.331-16.178-1.963c-8.837-2.761-16.976-9.856-18.098-19.05c-0.433-3.552,0.663-7.817,3.993-9.142c1.487-0.595,3.161-0.484,4.758-0.357c7.715,0.595,15.43,1.19,23.145,1.784c-15.906-136.236-96.361-252.76-209.971-318.168c-10.689,2.736-20.707,8.352-29.093,15.6c-12.176,10.527-21.174,24.301-28.251,38.762c-5.718,11.691-9.924,26.739-1.75,36.867c7.367,9.125,20.927,9.423,32.653,8.939c9.015-0.374,20.103-2.218,22.924-10.782c2.277-6.882-2.056-15.702,3.118-20.961c2.668-2.702,6.814-3.161,10.273-1.597c5.523,2.49,7.944,8.42,8.446,14.139c1.088,12.422-5.939,24.64-15.991,32.024c-10.043,7.384-22.695,10.476-35.142,11.241c-10.349,0.637-21.87,0.161-29.628,7.044c-7.018,6.22-8.59,16.518-13.926,24.224c-4.767,6.874-12.439,11.538-16.331,18.939c-3.815,7.273-3.263,15.515-1.071,23.638c2.337,8.633-4.953,16.866-13.833,15.804c-7.299-0.867-14.308-1.249-18.608,5.472c-2.073,3.229-2.77,7.146-2.303,10.961c0.952,7.859,0.646,16.696,5.888,23.383c1.691,2.158,3.943,3.866,6.568,4.648c7.214,2.167,12.618-3.059,17.146-7.876c7.732-8.225,15.464-16.45,23.196-24.674c6.568-6.984,14.385-13.391,23.935-14.274c9.312-0.858,15.897,3.62,20.044,8.556c2.914,3.467,10.179,12.754,15.141,20.01c2.184,3.203,6.228,4.571,9.924,3.399l0.127-0.034c4.886-1.563,7.384-7.001,5.387-11.725c-1.759-4.197-4.877-10.332-7.486-15.311c-2.651-5.073-1.181-11.352,3.5-14.657c0.077-0.06,0.145-0.11,0.221-0.161c5.039-3.535,12.04-2.439,15.693,2.507c7.919,10.723,13.663,23.06,16.679,36.043c1.436,6.194,4.35,14.266,10.689,13.705c6.908-0.612,9.839-11.742,16.747-11.071c5.463,0.527,6.942,7.656,10.213,12.065c7.749,10.485,27.053,5.803,34.31,16.637c5.914,8.837-1.886,21.505-12.014,24.734c-10.137,3.229-21.046,0.178-31.387-2.286c-10.341-2.473-21.905-4.189-31.064,1.215c-4.665,2.753-8.471,7.248-13.756,8.429c-7.273,1.623-14.317-3.713-18.676-9.754c-4.359-6.033-7.367-13.178-12.94-18.106c-10.035-8.854-25.048-8.055-38.363-6.738c-15.965,1.58-31.931,3.169-47.904,4.75c-5.965,0.586-12.439,1.411-16.679,5.65c-3.45,3.441-4.69,8.446-6.143,13.102c-8.463,27.121-28.523,49.791-34.972,77.456c-3.857,16.552-2.438,34.446,4.843,49.799c7.282,15.362,20.545,27.971,36.578,33.613c21.361,7.503,44.599,2.43,67.404,1.24c7.851-0.408,14.903,4.775,16.934,12.38c4.163,15.608,12.839,30.928,15.201,47.123c3.772,25.898-8.862,51.329-10.264,77.464c-0.994,18.48,3.679,36.791,9.431,54.379c4.367,13.331,10.341,27.589,22.771,34.089c12.167,6.372,27.563,3.254,39.042-4.282c11.488-7.536,19.899-18.829,28.056-29.874c12.958-17.554,25.924-35.117,38.881-52.671c9.508-12.881,19.321-26.493,21.505-42.356c1.58-11.471-1.011-23.162,0.025-34.692c2.158-24.139,19.492-43.843,36.298-61.312c5.812-6.041,12.142-13.935,9.457-21.879c-2.77-8.191-12.949-10.391-20.995-13.561c-24.972-9.814-37.275-37.343-47.123-62.306c-2.77-7.035-4.92-16.526,1.224-20.953c5.081-3.679,12.346-0.816,17.104,3.271c11.59,9.984,16.212,25.558,23.247,39.136c7.027,13.578,19.738,26.943,34.93,25.184c11.19-1.3,21.769-10.621,32.109-11.394c0.459-8.08,0.688-16.229,0.688-24.428C2021.002,725.958,2020.832,718.957,2020.492,711.998z M1931.574,578.779c-0.051,0.026-0.094,0.051-0.145,0.085c-3.22,1.937-7.027,2.609-10.765,2.965c-13.272,1.258-26.595-1.079-39.722-3.399c-2.507-0.442-5.073-0.909-7.239-2.235c-2.175-1.317-3.883-3.713-3.654-6.237c0.221-2.388,2.039-4.291,3.857-5.837c9.491-8.097,22.142-12.388,34.599-11.751c8.055,0.416,15.974,2.889,22.89,7.018C1938.635,563.714,1938.746,574.36,1931.574,578.779z"/>
      <path d="M1688.98,494.515c-2.277,3.169-4.529,6.517-5.242,10.349c-0.705,3.841,0.535,8.31,3.9,10.273c3.654,2.15,8.327,0.739,12.125-1.139c6.984-3.45,13.187-8.31,18.922-13.586c4.639-4.282,9.194-9.185,10.621-15.345c1.411-6.067-0.45-12.371-2.294-18.327c-1.597-5.157-3.288-10.451-5.362-15.515c-2.744-6.712-10.222-10.451-17.112-8.191c-0.306,0.102-0.62,0.212-0.918,0.331c-4.937,1.954-8.802,6.398-10.085,11.547c-2.379,9.644,3.993,19.95,1.215,29.492C1693.662,488.142,1691.257,491.337,1688.98,494.515z"/>
      <path d="M1669.687,492.472c2.667,2.073,6.57,2.942,9.446,1.17c1.914-1.187,3.051-3.285,3.971-5.358c2.574-5.784,4.171-12.305,2.667-18.457c-0.008-0.017-0.008-0.033-0.017-0.05c-0.894-3.603-4.355-6.002-8.066-5.768c-1.262,0.084-2.524,0.351-3.72,0.752c-3.269,1.137-6.094,3.26-8.618,5.617c-1.755,1.613-3.469,3.494-3.912,5.835c-0.543,2.842,0.878,5.642,2.265,8.184C1665.323,487.364,1667.028,490.399,1669.687,492.472z"/>
    </g>
  </g>
</svg>
