<svg xmlns="http://www.w3.org/2000/svg" xmlns:xlink="http://www.w3.org/1999/xlink" width="160.956" height="70.778" viewBox="0 0 160.956 70.778"><defs><style>      .cls-1 {        fill: none;      }      .cls-2 {        clip-path: url(#clip-path);      }      .cls-3 {        fill: #1D4ED8;      }      .cls-4 {        fill: #fff;      }    </style><clipPath id="clip-path"><rect id="Rettangolo_1" data-name="Rettangolo 1" class="cls-1" width="160.956" height="70.778"></rect></clipPath></defs><g id="Raggruppa_2" data-name="Raggruppa 2" transform="translate(0 0)"><g id="Raggruppa_1" data-name="Raggruppa 1" class="cls-2" transform="translate(0 0)"><path id="Tracciato_1" data-name="Tracciato 1" class="cls-3" d="M10.915,12.009c9.192-9.1,21.5-15.482,35.828-9.947,7.017,2.9,12.9,11.762,17.2,17.685,18.016,24.59-11.649,53.241-37.289,50.9C11.832,69.376,5.057,61.334,1.675,48.015-1.653,33.554.087,25.638,5.928,17.47c.3-.421,3.672-4.161,4.986-5.461" transform="translate(0 0)"></path><path id="Tracciato_2" data-name="Tracciato 2" class="cls-4" d="M29.9,67.992c-1.514-.162-2.109-.595-1.946-3.892l-.217-34.815c-.108-3.46-.054-3.569,3.676-3.46h6.055c3.081,0,2.973.27,3.027,2.6V38.8c-.108,2.865-.27,3.135,3.46,3.028h8c2.486-.054,2.432-.054,2.595-3.028V28.852c.162-2.432.162-3.135,3.892-3.243h5.406c3.028-.054,3.082.378,3.244,5.838v32c-.054,3.676-.162,4.433-3.244,4.325H58.441c-3.892.055-3.73.595-3.892-3.027V56.1c-.27-3.892-.162-3.73-2.595-3.892H42.871c-2.433.108-2.595.649-2.379,3.243v8.867c-.054,3.3-.054,3.567-2.811,3.676Z" transform="translate(-11.918 -11.014)"></path><path id="Tracciato_3" data-name="Tracciato 3" class="cls-3" d="M135.352,41.276c-.357-.038-.5-.141-.46-.92l-.051-8.226c-.026-.818-.013-.843.868-.818h1.43c.728,0,.7.064.716.613v2.453c-.026.677-.064.741.817.715h1.891c.588-.013.574-.013.613-.715V32.028c.038-.574.038-.741.919-.766h1.278c.715-.013.728.09.766,1.38V40.2c-.013.868-.039,1.047-.766,1.022H142.1c-.919.013-.881.141-.919-.715V38.466c-.064-.92-.039-.882-.613-.92h-2.146c-.575.026-.613.153-.562.766v2.095c-.013.779-.013.843-.664.868Z" transform="translate(-57.997 -13.446)"></path><path id="Tracciato_4" data-name="Tracciato 4" class="cls-3" d="M159.087,32.5c.013,1.469-.038,1.469-.792,1.507a1.471,1.471,0,0,0-1.265.779,5.545,5.545,0,0,0-.4,2.248c.013.613.09,1.776.154,2.4.153,1.8-.191,1.738-.422,1.673a4,4,0,0,1-3.078-3.18,6.652,6.652,0,0,1,.332-3.845,4.127,4.127,0,0,1,2.746-2.542,5.713,5.713,0,0,1,2.032-.179c.7.064.766.013.69,1.137m-1.1,7.677c0-1.469-.038-1.43.767-1.507a1.526,1.526,0,0,0,1.264-.792,5.388,5.388,0,0,0,.358-2.261c-.013-.613-.115-1.763-.179-2.389-.179-1.8.166-1.75.4-1.686a3.98,3.98,0,0,1,3.129,3.142,6.631,6.631,0,0,1-.293,3.844,4.128,4.128,0,0,1-2.721,2.58,5.936,5.936,0,0,1-2.018.218c-.7-.077-.766-.026-.7-1.15" transform="translate(-65.877 -13.485)"></path><path id="Tracciato_5" data-name="Tracciato 5" class="cls-3" d="M173.921,39.287a2.519,2.519,0,0,1-.178-1.111c.026-.447.1-.664.792-.69l1.124-.013a.9.9,0,0,1,.792.191,2.163,2.163,0,0,0,.7,1.277,2.211,2.211,0,0,0,.842.435,1.386,1.386,0,0,0,1.495-.268.977.977,0,0,0-.1-1.316,14.02,14.02,0,0,0-2.555-1.072,7.428,7.428,0,0,1-2.542-1.112,2.177,2.177,0,0,1-.472-2.069,2.066,2.066,0,0,1,.894-1.367,4.442,4.442,0,0,1,1.635-.7,10.33,10.33,0,0,1,3.743.064,3.161,3.161,0,0,1,2.363,2.427c.013.243-.243.524-.715.549l-1.38.1c-.652.051-.818-.115-.869-.409-.064-1.061-.766-1.163-1.482-1.124-.613.1-.932.217-1.073.511a.9.9,0,0,0,.358,1.277,8.918,8.918,0,0,0,2.517.575,3.268,3.268,0,0,1,2.338,1.009,2.585,2.585,0,0,1,.511.92,2.613,2.613,0,0,1,.077,1.1,2.786,2.786,0,0,1-1.009,1.878,3.249,3.249,0,0,1-1.776.818,8.684,8.684,0,0,1-2.095.14c-1.776-.089-3.513-.856-3.934-2.018" transform="translate(-74.73 -13.475)"></path><path id="Tracciato_6" data-name="Tracciato 6" class="cls-3" d="M191.414,40.349V35.1c.013-2.006.958-3.372,2.963-3.666a11.112,11.112,0,0,1,2.478,0,3.388,3.388,0,0,1,2.912,2.159,6.36,6.36,0,0,1-.026,3.282,3.135,3.135,0,0,1-.868,1.239,3,3,0,0,1-1.239.574,6.081,6.081,0,0,1-1.316.115c-.843,0-.881,0-.868-.6V37.45c.026-.37-.115-.894.549-.792a1.365,1.365,0,0,0,1.52-1.239,1.679,1.679,0,0,0-1.737-1.826c-.818.013-.959.191-1.239.485-.434.46-.472.984-.485,1.955l-.013,4.586c-.013.7-.026.728-.728.7h-1.239c-.676,0-.676,0-.664-.971" transform="translate(-82.332 -13.49)"></path><path id="Tracciato_7" data-name="Tracciato 7" class="cls-3" d="M208.4,40.652V32.323c-.064-.932.025-.958.868-.97h1.227c.69,0,.843.038.856.907l.013,8.392c-.026.639-.051.639-.664.613h-1.775c-.524-.013-.549-.013-.524-.613" transform="translate(-89.632 -13.486)"></path><path id="Tracciato_8" data-name="Tracciato 8" class="cls-3" d="M218.326,40.443V34.414c.013-.511-.013-.536-1.009-.536l-1.495.025c-.447-.025-.447-.025-.46-.715V31.962c.026-.6.051-.639.37-.614h7.856c.728-.025.754,0,.715.92v1.124c-.026.46-.026.5-1.022.46,0,0-1.048.026-1.495.026-.588,0-.562.025-.549.536v5.519c0,1.341.013,1.341-.715,1.328h-1.43c-.766.013-.792.026-.766-.818" transform="translate(-92.634 -13.481)"></path><path id="Tracciato_9" data-name="Tracciato 9" class="cls-3" d="M232.534,40.379l3.372-8.584c.2-.511.268-.511.626-.46h1.418c.639-.013.7-.026.92.511l3.015,8.533c.332.881.332.945-.817.92H240.1c-.459.051-.472-.026-.613-.613l-.2-.511c-.064-.459-.1-.459-1.124-.459h-1.532c-.575.038-.307-.588-.307-.818.115-1.035.242-1.035.664-1.022H238.1c.4-.013.435-.039.205-.766l-.358-1.124c-.409-1.405-.83-1.469-1.277,0l-1.584,4.445c-.293.907-.319.92-.868.869h-.971c-1.086.051-1.061.026-.715-.92" transform="translate(-99.929 -13.469)"></path><path id="Tracciato_10" data-name="Tracciato 10" class="cls-3" d="M251.435,40.5V32.221c-.013-.868.063-.868.613-.868h1.738c.562,0,.588,0,.613.715v5.621c.026,1.277.026,1.239.46,1.277h3.015c1.124.026,1.188.115,1.175.664v.97c-.076.69-.026.716-.715.716l-6.285-.051c-.587.026-.638.026-.613-.766" transform="translate(-108.147 -13.486)"></path><path id="Tracciato_11" data-name="Tracciato 11" class="cls-3" d="M266.793,39.287a2.527,2.527,0,0,1-.179-1.111c.026-.447.1-.664.792-.69l1.124-.013a.9.9,0,0,1,.792.191,2.167,2.167,0,0,0,.7,1.277,2.211,2.211,0,0,0,.842.435,1.386,1.386,0,0,0,1.495-.268.977.977,0,0,0-.1-1.316,14.015,14.015,0,0,0-2.555-1.072,7.428,7.428,0,0,1-2.542-1.112,2.177,2.177,0,0,1-.472-2.069,2.064,2.064,0,0,1,.894-1.367,4.438,4.438,0,0,1,1.635-.7,10.33,10.33,0,0,1,3.743.064,3.161,3.161,0,0,1,2.363,2.427c.013.243-.243.524-.715.549l-1.38.1c-.652.051-.818-.115-.869-.409-.064-1.061-.766-1.163-1.482-1.124-.613.1-.932.217-1.073.511a.9.9,0,0,0,.358,1.277,8.918,8.918,0,0,0,2.517.575,3.266,3.266,0,0,1,2.337,1.009,2.579,2.579,0,0,1,.511.92,2.613,2.613,0,0,1,.077,1.1,2.786,2.786,0,0,1-1.009,1.878,3.249,3.249,0,0,1-1.776.818,8.684,8.684,0,0,1-2.095.14c-1.776-.089-3.513-.856-3.934-2.018" transform="translate(-114.676 -13.475)"></path><path id="Tracciato_12" data-name="Tracciato 12" class="cls-3" d="M136.269,64.364c-.384,0-.536-.026-.741-.919l-1.571-8.188c-.141-.779-.2-.882.83-.856h1.43c.664.013.664-.038.766.715l.664,3.986c.153.651.614.651.716-.1l.715-3.628c.166-.958.166-.971.818-1.022l1.073.051c.639.013.664,0,.818.971L142.5,58.9c.23.97.524.856.767,0l1.072-3.883c.153-.613.282-.651.766-.613h1.277c.907,0,.907,0,.639,1.124l-1.967,8.021c-.217.843-.242.818-1.073.818h-1.176c-.843.026-.7-.026-.971-.613l-1.073-3.117c-.384-.882-.562-.843-.817.051l-.971,3.014c-.2.664-.141.664-.792.678Z" transform="translate(-57.585 -23.377)"></path><path id="Tracciato_13" data-name="Tracciato 13" class="cls-3" d="M158.646,63.738V55.41c-.064-.933.025-.958.868-.971h1.227c.69,0,.843.038.856.907l.013,8.392c-.026.639-.051.639-.664.613h-1.775c-.524-.013-.549-.013-.524-.613" transform="translate(-68.231 -23.416)"></path><path id="Tracciato_14" data-name="Tracciato 14" class="cls-3" d="M168.572,63.53V57.5c.013-.511-.013-.536-1.009-.536l-1.494.025c-.447-.025-.447-.025-.46-.715V55.049c.026-.6.051-.639.37-.614h7.856c.728-.025.754,0,.715.92v1.124c-.026.46-.026.5-1.022.46,0,0-1.048.026-1.495.026-.588,0-.562.025-.549.536v5.519c0,1.341.013,1.341-.715,1.328h-1.43c-.766.013-.792.026-.766-.818" transform="translate(-71.233 -23.412)"></path><path id="Tracciato_15" data-name="Tracciato 15" class="cls-3" d="M183.626,64.363c-.358-.038-.5-.14-.46-.919l-.05-8.227c-.026-.818-.013-.843.868-.818h1.431c.728,0,.7.064.716.613v2.453c-.026.677-.064.741.817.715h1.891c.587-.013.574-.013.613-.715V55.115c.038-.574.038-.741.92-.766h1.277c.716-.013.729.09.766,1.38V63.29c-.013.868-.038,1.047-.766,1.022H190.37c-.92.013-.882.14-.92-.715V61.553c-.064-.919-.039-.881-.613-.919h-2.147c-.574.026-.613.153-.561.766v2.095c-.013.78-.013.843-.664.868Z" transform="translate(-78.761 -23.376)"></path><path id="Tracciato_16" data-name="Tracciato 16" class="cls-3" d="M207.362,55.588c.013,1.469-.038,1.469-.792,1.507a1.471,1.471,0,0,0-1.265.779,5.545,5.545,0,0,0-.4,2.248c.013.613.089,1.776.154,2.4.153,1.8-.191,1.738-.422,1.673a4,4,0,0,1-3.078-3.18,6.648,6.648,0,0,1,.332-3.845,4.128,4.128,0,0,1,2.746-2.542,5.713,5.713,0,0,1,2.032-.179c.7.064.766.013.69,1.137m-1.1,7.677c0-1.469-.038-1.431.767-1.508a1.525,1.525,0,0,0,1.264-.791,5.382,5.382,0,0,0,.358-2.261c-.013-.613-.115-1.763-.179-2.389-.179-1.8.166-1.75.4-1.686A3.98,3.98,0,0,1,212,57.773a6.63,6.63,0,0,1-.293,3.844,4.129,4.129,0,0,1-2.721,2.58,5.935,5.935,0,0,1-2.018.218c-.7-.077-.766-.026-.7-1.15" transform="translate(-86.642 -23.415)"></path><path id="Tracciato_17" data-name="Tracciato 17" class="cls-3" d="M222.449,62.059a5.022,5.022,0,0,1-.281-1.738l-.013-4.815c.013-1.086-.013-1.073.511-1.073h1.686c.958-.026.984.026,1.009.907l.013,4.254c-.038,1.469.089,2.2,1.532,2.2,1.418,0,1.482-.882,1.431-2.351V55.455c.051-.984.077-.984.511-1.022h1.737c.639-.026.639-.064.664,1.175l-.013,4.893a5.743,5.743,0,0,1-.306,1.838,2.886,2.886,0,0,1-2.645,2.006c-.971.051-1.9.026-2.8.026a3.66,3.66,0,0,1-3.04-2.312" transform="translate(-95.555 -23.41)"></path><path id="Tracciato_18" data-name="Tracciato 18" class="cls-3" d="M242.968,63.53V57.5c.013-.511-.013-.536-1.009-.536l-1.495.025c-.447-.025-.447-.025-.46-.715V55.049c.026-.6.051-.639.37-.614h7.856c.729-.025.755,0,.716.92v1.124c-.026.46-.026.5-1.022.46,0,0-1.048.026-1.495.026-.588,0-.562.025-.549.536v5.519c0,1.341.013,1.341-.715,1.328h-1.43c-.766.013-.792.026-.766-.818" transform="translate(-103.233 -23.412)"></path><path id="Tracciato_19" data-name="Tracciato 19" class="cls-3" d="M134.841,86.59l.026-8.7c.076-.4.051-.422.792-.4h1.175c.536-.013.779.038.766.409v2.453c-.013.92.651,1.137,1.584,1.124.984-.013,1.38-.37,1.38-1.073,0-.473-.524-.741-1.022-.716-.536.026-.741-.064-.766-.511a7.182,7.182,0,0,1,0-.919c.026-.767.345-.793,1.009-.805a7.877,7.877,0,0,1,2.287.178,2.583,2.583,0,0,1-.18,4.509c2.325,1.137,1.7,4.458.332,5.046a6.491,6.491,0,0,1-2.734.217c-.715-.013-.728-.191-.766-.357a4.4,4.4,0,0,1,0-1.175c.038-.358.345-.536.754-.55.932-.038,1.354-.447,1.341-.933-.026-.791-.779-1.149-1.635-1.174-.817-.026-1.6.255-1.584.971v2.5c-.026.7.013.792-.511.766H135.4c-.549.013-.587.026-.562-.869" transform="translate(-57.996 -33.315)"></path><path id="Tracciato_20" data-name="Tracciato 20" class="cls-3" d="M157.9,78.676c.013,1.469-.038,1.469-.792,1.507a1.472,1.472,0,0,0-1.265.779,5.549,5.549,0,0,0-.4,2.248c.012.614.089,1.776.154,2.4.153,1.8-.191,1.737-.422,1.673A4,4,0,0,1,152.1,84.1a6.646,6.646,0,0,1,.332-3.845,4.127,4.127,0,0,1,2.746-2.542,5.726,5.726,0,0,1,2.032-.179c.7.064.766.013.69,1.137m-1.1,7.677c0-1.469-.038-1.43.767-1.507a1.525,1.525,0,0,0,1.264-.792,5.389,5.389,0,0,0,.358-2.261c-.013-.613-.115-1.763-.179-2.388-.179-1.8.166-1.75.4-1.686a3.98,3.98,0,0,1,3.129,3.142,6.632,6.632,0,0,1-.294,3.845,4.128,4.128,0,0,1-2.721,2.58,5.935,5.935,0,0,1-2.018.217c-.7-.077-.766-.026-.7-1.15" transform="translate(-65.366 -33.346)"></path><path id="Tracciato_21" data-name="Tracciato 21" class="cls-3" d="M172.692,86.523v-5.25c.013-2.005.958-3.372,2.963-3.666a11.111,11.111,0,0,1,2.478,0,3.388,3.388,0,0,1,2.912,2.159,4.65,4.65,0,0,1-.077,2.976,6.61,6.61,0,0,1-1.328,1.431c-.089.063.8,1.367,1.341,2.376.536.856.4.907.141.945h-2.146c-.69.089-.613-.141-1.022-.869-.728-1.226-1.251-1.878-1.226-2.4v-.753c.026-.371-.115-.9.549-.793.715-.063,1.418-.345,1.52-1.239a1.539,1.539,0,0,0-1.737-1.673c-.818.013-.958.191-1.239.485-.434.46-.472.984-.485,1.955l-.013,4.586c-.013.7-.026.728-.728.7h-1.239c-.677,0-.677,0-.664-.971" transform="translate(-74.279 -33.35)"></path><path id="Tracciato_22" data-name="Tracciato 22" class="cls-3" d="M189.991,86.824V78.495c-.064-.932.026-.958.868-.971h1.226c.69,0,.843.039.856.907l.013,8.035c-.025.919-.051,1-.664.97,0,0-1.061.013-1.776,0-.524-.013-.549-.013-.524-.613m4.6.613c-.83.013-.868-.153-.868-.613V85.738c.025-.678.038-.652.919-.664a2.343,2.343,0,0,0,2.3-2.389c-.026-2.12-1.124-2.657-2.248-2.606-.907.039-.945.013-.971-.613v-.971c-.039-.932.013-.958.613-.971a5.347,5.347,0,0,1,3.628.869c1.163.894,1.622,1.571,1.686,4.394.051,2.211-.6,3.194-1.686,3.934a7.176,7.176,0,0,1-3.372.716" transform="translate(-81.714 -33.344)"></path><path id="Tracciato_23" data-name="Tracciato 23" class="cls-3" d="M210.161,87.487c-.919,0-.919-.064-.919-.971l.051-7.958c-.026-1.1,0-1.048.97-1.035h5.978c.868,0,.856,0,.868,1.328-.038,1-.051,1.022-.882,1.009H212.55c-.434-.012-.46.026-.447,1.086,0,.715.026.715.46.715l2.784-.013c.574.013.6.026.574.945-.026,1.035-.026,1.035-.6,1.061h-2.759c-.435.013-.46.013-.46.664-.038.92-.051.92.422.932h3.781c.779-.012.766-.012.753,1.01,0,1.213-.025,1.213-.766,1.226Z" transform="translate(-90.001 -33.343)"></path><path id="Tracciato_24" data-name="Tracciato 24" class="cls-3" d="M225.181,86.523v-5.25c.013-2.005.958-3.372,2.963-3.666a11.112,11.112,0,0,1,2.478,0,3.388,3.388,0,0,1,2.912,2.159,4.65,4.65,0,0,1-.077,2.976,6.611,6.611,0,0,1-1.328,1.431c-.089.063.8,1.367,1.341,2.376.536.856.4.907.141.945h-2.146c-.69.089-.613-.141-1.022-.869-.728-1.226-1.251-1.878-1.226-2.4v-.753c.026-.371-.115-.9.549-.793.715-.063,1.418-.345,1.52-1.239a1.539,1.539,0,0,0-1.737-1.673c-.818.013-.959.191-1.24.485-.434.46-.472.984-.485,1.955l-.013,4.586c-.013.7-.026.728-.728.7h-1.239c-.677,0-.677,0-.664-.971" transform="translate(-96.856 -33.35)"></path><path id="Tracciato_25" data-name="Tracciato 25" class="cls-3" d="M242.354,85.461a2.519,2.519,0,0,1-.178-1.111c.026-.447.1-.664.792-.69l1.124-.013a.9.9,0,0,1,.792.191,2.166,2.166,0,0,0,.7,1.278,2.218,2.218,0,0,0,.842.434,1.387,1.387,0,0,0,1.495-.268.977.977,0,0,0-.1-1.315,14.021,14.021,0,0,0-2.555-1.073,7.427,7.427,0,0,1-2.542-1.112,2.177,2.177,0,0,1-.472-2.069,2.067,2.067,0,0,1,.894-1.367,4.443,4.443,0,0,1,1.635-.7,10.342,10.342,0,0,1,3.743.063,3.163,3.163,0,0,1,2.363,2.428c.013.243-.243.523-.715.549l-1.38.1c-.652.051-.818-.115-.869-.409-.064-1.061-.766-1.163-1.482-1.124-.613.1-.932.217-1.073.511a.9.9,0,0,0,.358,1.277,8.9,8.9,0,0,0,2.517.575,3.27,3.27,0,0,1,2.338,1.009,2.587,2.587,0,0,1,.511.92,2.615,2.615,0,0,1,.077,1.1,2.786,2.786,0,0,1-1.009,1.878,3.249,3.249,0,0,1-1.776.818,8.655,8.655,0,0,1-2.095.141c-1.776-.089-3.513-.856-3.934-2.018" transform="translate(-104.165 -33.335)"></path></g></g></svg>