<svg xmlns="http://www.w3.org/2000/svg" width="285" height="120" viewBox="0 0 285 120"><g id="logo" transform="translate(6838.111 21380.107)"><rect id="Rectangle_21194" data-name="Rectangle 21194" width="285" height="120" transform="translate(-6838.111 -21380.107)" fill="none"></rect><g id="logo-2" data-name="logo" transform="translate(-6840.144 -21382.145)"><g id="Group_40108" data-name="Group 40108" transform="translate(2.144 2.144)"><path id="Path_42991" data-name="Path 42991" d="M67.888,77.236l-.034-3.261c-.074.005-.148.005-.222.005a9.346,9.346,0,1,1,0-18.692h.042l-.042-4.036V6.323a.255.255,0,0,0-.507-.037L64.541,22.923a42.019,42.019,0,0,0-5.933.872l-.006,0a1.632,1.632,0,0,0-3.155.832h0c-1.2.359-2.377.782-3.523,1.252l-1.362-2.568.936,2.736,0,0c-1.115.47-2.2.983-3.259,1.543a1.632,1.632,0,0,0-2.824,1.631l0,0a41.465,41.465,0,0,0-6,4.581L31.88,28.275a.269.269,0,0,0-.359.042.261.261,0,0,0,.011.354l.079.079.006.006,5.369,7.457,0,0a41.56,41.56,0,0,0-4.623,5.975l0,0a1.633,1.633,0,0,0-1.634,2.8l0,0a38.644,38.644,0,0,0-1.68,3.534v0l-2.65-.829,2.493,1.212h0q-.658,1.6-1.178,3.276v0a1.632,1.632,0,0,0-.845,3.131,41.02,41.02,0,0,0-.913,6.005L6.927,64.249a.261.261,0,0,0-.222.28.242.242,0,0,0,.137.206.094.094,0,0,0,.037.018l0,0h0l.079.016h.023l18.949,3.075a41.876,41.876,0,0,0,.956,6.244,1.635,1.635,0,0,0,.577,3.165,1.667,1.667,0,0,0,.288-.029v0q.506,1.631,1.156,3.2l-2.523,1.332,2.725-.843q.737,1.751,1.633,3.408l0,0a1.632,1.632,0,0,0,1.643,2.8l0,.006A41.509,41.509,0,0,0,37,93.074l-5.495,7.56a.262.262,0,0,0,.153.412.159.159,0,0,0,.19-.005l7.613-5.521a41.959,41.959,0,0,0,6.01,4.569,1.621,1.621,0,0,0-.163.7,1.637,1.637,0,0,0,2.988.924c1.056.554,2.133,1.061,3.242,1.526l0,0L50.4,106.654l1.674-3.2q1.64.666,3.349,1.183h0a1.632,1.632,0,0,0,3.155.832l.006,0a40.833,40.833,0,0,0,5.732.856l3.054,19.31a.266.266,0,0,0,.259.222h.021a.265.265,0,0,0,.243-.264V77.261c0-.01-.007-.016-.008-.025M61.325,88.294l0,0h0a24.427,24.427,0,0,1-7.3-3.323l6.218-4.507,1.242,7.872c-.051-.015-.1-.03-.152-.041M43.932,70.766l8.3,1.347-4.705,6.474a24.39,24.39,0,0,1-3.6-7.821m3.533-19.995,4.647,6.455,1.152-.088-.019,0-9.33,1.432a24.412,24.412,0,0,1,3.55-7.8m5.817,6.365h0Zm7.174-7.866-6.609-4.855a24.336,24.336,0,0,1,7.909-3.545ZM52.167,26.347q1.7-.689,3.476-1.231h0a1.63,1.63,0,0,0,3.03-.792h0a40.07,40.07,0,0,1,5.785-.861L61.846,40.305c-.037.011-.079.016-.116.026L58.936,30.055a.264.264,0,1,0-.51.139l2.793,10.27h0c-.454.122-.9.254-1.347.4h0l-7.7-14.519m-6.451,3.308a1.628,1.628,0,0,0,2.727-1.572l0,0q1.569-.832,3.217-1.527h0l5.3,15.475h0c-.454.211-.9.439-1.337.676l-5.434-9.157a.264.264,0,1,0-.454.27l5.427,9.147c-.6.354-1.188.723-1.758,1.125L39.842,34.124a41.389,41.389,0,0,1,5.874-4.469m-6.7,4.517.433.322,13.5,9.917.444.322,6.974,5.13-.613,3.957A12.908,12.908,0,0,0,58.349,55l-7.8-7.877-.365-.375L38.727,35.186l-.375-.38-4.073-4.11ZM29.545,48.69c.5-1.173,1.041-2.325,1.643-3.439l0-.005a1.619,1.619,0,0,0,.53.1A1.631,1.631,0,0,0,32.8,42.483v0a40.764,40.764,0,0,1,4.5-5.827h0l9.841,13.669c-.306.433-.6.882-.882,1.336h0l-9.334-5.231a.264.264,0,1,0-.258.461l9.323,5.225c-.28.48-.544.977-.787,1.478h0l-15.66-4.9h0m-2.171,6.752v0c.032,0,.063.01.1.01a1.633,1.633,0,0,0,.737-3.092v0q.507-1.633,1.152-3.2v0l14.7,7.148v0q-.325.895-.57,1.821L33.433,55.193a.264.264,0,1,0-.147.507l10.07,2.93v0a.04.04,0,0,0-.005.026L26.486,61.248a41.017,41.017,0,0,1,.888-5.806m-1.463,6.43.534-.085,16.774-2.573.56-.085,12.743-1.955a13.257,13.257,0,0,0-2.267,7.2L43.16,64.339h-.528L26.348,64.3H25.82l-15.448-.042Zm2.34,15.184,0-.005a1.632,1.632,0,0,0-.779-3.069c-.021,0-.039,0-.06.006h0a40.855,40.855,0,0,1-.935-6.052l16.885,2.74c.011.031.016.062.026.093L32.974,73.726a.264.264,0,0,0,.072.518.259.259,0,0,0,.072-.01l10.407-2.958c.111.417.237.828.375,1.234L29.38,80.182q-.625-1.537-1.13-3.127m4.581,9.785h0a1.626,1.626,0,0,0-1.607-2.75l0-.007c-.581-1.078-1.115-2.187-1.6-3.318l0,0L45.315,75.9c.179.363.374.722.574,1.07l-9.3,5.43a.264.264,0,1,0,.266.456l9.3-5.429h0c.328.549.676,1.088,1.051,1.606l-9.885,13.6a41.224,41.224,0,0,1-4.491-5.8m.28,12.484,4.258-5.854.317-.438,9.843-13.546.322-.444,4.969-6.833,4.295.7,0,0h0a12.145,12.145,0,0,0,1.236,1.368l-7.872,7.814-.375.37L38.558,93.919l-.38.375Zm18.6,3.413q-1.633-.682-3.186-1.506l-.006,0a1.631,1.631,0,0,0-2.745-1.575h0a40.914,40.914,0,0,1-5.87-4.448L53.568,85.3c.47.328.951.634,1.448.925l0,0-5.344,9.153a.264.264,0,0,0,.456.266l5.346-9.156c.475.264.955.511,1.451.744l0,0-5.216,15.506,0,0m6.932,2.2h0a1.63,1.63,0,0,0-3.013-.791h0q-1.686-.506-3.309-1.166l7.606-14.553h0c.327.106.665.211,1,.3L58.2,99.085a.264.264,0,0,0,.511.135l2.731-10.35.125.031,2.668,16.885a40.615,40.615,0,0,1-5.59-.845m8.723,17.287-2.5-15.866-.085-.534-2.652-16.79-.09-.565L60.013,75.634a13.266,13.266,0,0,0,7.354,2.377v44.215Z" transform="translate(-6.704 -6.068)" fill="#f2ba49"></path><g id="Group_40109" data-name="Group 40109" transform="translate(78.575 33.198)"><path id="Path_42992" data-name="Path 42992" d="M179.229,81.726a12.437,12.437,0,0,0-1.64-3.5,6.813,6.813,0,0,0-2.058-2.292,11.039,11.039,0,0,0-4.106-.459H170.2V98.576a2.277,2.277,0,0,0,.734,1.794q.733.652,3.952.957v1.467H161.237v-1.467a10.933,10.933,0,0,0,3.81-.672,1.977,1.977,0,0,0,.815-1.875V75.47H164.7a15.032,15.032,0,0,0-3.82.3,5.486,5.486,0,0,0-2.14,2.14,13.111,13.111,0,0,0-1.844,3.82H155.43V73.881h25.2v7.845Z" transform="translate(-155.43 -71.254)" fill="#fff"></path><path id="Path_42993" data-name="Path 42993" d="M217.556,91.956a5.513,5.513,0,0,0-4.442,2.954v11.7a1.853,1.853,0,0,0,.7,1.61,7,7,0,0,0,3.148.673v1.345h-10.6v-1.345l.978-.1q1.976-.142,1.976-1.976V94.422q0-2.649-3.179-2.751V90.327l6.684-.408.285.285V93h.1q2.629-3.342,5.624-3.342a2.821,2.821,0,0,1,2.1.825,3.091,3.091,0,0,1,.815,2.272,3.036,3.036,0,0,1-.56,1.9,1.81,1.81,0,0,1-1.518.733,2.556,2.556,0,0,1-1.7-.54,1.677,1.677,0,0,1-.642-1.335,6.926,6.926,0,0,1,.225-1.549" transform="translate(-179.351 -78.694)" fill="#fff"></path><path id="Path_42994" data-name="Path 42994" d="M253.309,110.551l-.326-.285v-2.547h-.142a8.745,8.745,0,0,1-6.663,3.26q-5.482,0-5.48-6.806v-9.6q0-2.506-3.159-2.628V90.6l6.725-.449.285.285v13.937a5,5,0,0,0,.937,3.209,2.946,2.946,0,0,0,2.4,1.171,5.706,5.706,0,0,0,5.053-2.954V94.414a2.447,2.447,0,0,0-.529-1.538,1.779,1.779,0,0,0-1.09-.764q-.56-.082-2.19-.163V90.6l7.315-.449.327.285v15.934q0,2.4,3.036,2.384V110.1Z" transform="translate(-194.159 -78.928)" fill="#fff"></path><path id="Path_42995" data-name="Path 42995" d="M302.246,105.454q-2.812,5.257-8.252,5.257a8.793,8.793,0,0,1-7.06-2.965,11.6,11.6,0,0,1-2.537-7.814,11.081,11.081,0,0,1,2.578-7.355,8.217,8.217,0,0,1,6.592-3.077,7.816,7.816,0,0,1,6.082,2.312,9.034,9.034,0,0,1,2.11,6.327v1.345H288.432a10.923,10.923,0,0,0,1.742,6.621,5.834,5.834,0,0,0,4.982,2.344,5.682,5.682,0,0,0,3.066-.795,8.9,8.9,0,0,0,2.618-3.077Zm-4.5-7.682q0-6.723-4.218-6.724a4.363,4.363,0,0,0-3.546,1.793,8.257,8.257,0,0,0-1.549,4.931Z" transform="translate(-216.261 -78.619)" fill="#fff"></path><path id="Path_42996" data-name="Path 42996" d="M370.934,75.328q-2.975.388-3.841,1.3t-.866,5.3v21.149h-1.752L346.951,79.423V94.318a17,17,0,0,0,.326,3.932,3.847,3.847,0,0,0,.785,1.7,4.583,4.583,0,0,0,1.773.876,10.679,10.679,0,0,0,2.292.5v1.467h-11.9v-1.467a9.263,9.263,0,0,0,3.6-1.1q1.171-.754,1.171-5.644V80.3q0-4.218-5.216-4.972V73.881h8.212l16.28,22.026V82.174q0-4.646-1.151-5.552a8.46,8.46,0,0,0-3.943-1.294V73.881h11.757Z" transform="translate(-242.383 -71.254)" fill="#fff"></path><path id="Path_42997" data-name="Path 42997" d="M411.74,110.793a9.032,9.032,0,0,1-6.835-2.975,10.667,10.667,0,0,1-2.8-7.621,10.958,10.958,0,0,1,2.74-7.712,9.294,9.294,0,0,1,7.183-2.985,9.082,9.082,0,0,1,7,2.9,10.608,10.608,0,0,1,2.679,7.488,11.339,11.339,0,0,1-2.73,7.835,9.213,9.213,0,0,1-7.234,3.067m.245-19.744a4.67,4.67,0,0,0-4.218,2.394,12.185,12.185,0,0,0-1.467,6.408,13.637,13.637,0,0,0,1.478,6.826,4.623,4.623,0,0,0,4.207,2.567,4.474,4.474,0,0,0,4.055-2.546,13.666,13.666,0,0,0,1.447-6.765,12.706,12.706,0,0,0-1.416-6.5,4.491,4.491,0,0,0-4.085-2.384" transform="translate(-271.781 -78.619)" fill="#fff"></path><path id="Path_42998" data-name="Path 42998" d="M455.744,91.956a5.513,5.513,0,0,0-4.442,2.954v11.7a1.853,1.853,0,0,0,.7,1.61,7,7,0,0,0,3.148.673v1.345h-10.6v-1.345l.978-.1q1.976-.142,1.976-1.976V94.422q0-2.649-3.179-2.751V90.327l6.684-.408.285.285V93h.1q2.629-3.342,5.624-3.342a2.821,2.821,0,0,1,2.1.825,3.091,3.091,0,0,1,.815,2.272,3.036,3.036,0,0,1-.56,1.9,1.81,1.81,0,0,1-1.518.733,2.557,2.557,0,0,1-1.7-.54,1.677,1.677,0,0,1-.641-1.335,6.92,6.92,0,0,1,.224-1.549" transform="translate(-291.699 -78.694)" fill="#fff"></path><path id="Path_42999" data-name="Path 42999" d="M488.492,104.3a13.626,13.626,0,0,1-5.42,1.284q-4.606,0-4.605-4.829V87.1H474.84V85.188h3.728V78.933h3.709v6.255h5.746V87.1h-5.705V98.33a7.85,7.85,0,0,0,.632,3.8q.632,1.008,2.628,1.009a10.485,10.485,0,0,0,2.914-.347Z" transform="translate(-306.089 -73.637)" fill="#fff"></path><path id="Path_43000" data-name="Path 43000" d="M515.179,100.446V99.1q.571-.061,1.06-.1,2.037-.123,2.037-1.976V86.673a5.069,5.069,0,0,0-.968-3.24,3.039,3.039,0,0,0-2.5-1.223,5.627,5.627,0,0,0-5.216,3.056V96.82q0,2.057,3.1,2.282v1.345h-9.862V99.1l1-.1q1.976-.143,1.976-1.976V73.612a3.346,3.346,0,0,0-.4-1.559,1.919,1.919,0,0,0-1.009-.988,11.446,11.446,0,0,0-2.527-.367V69.353l7.438-.448.285.285V83.209h.081a12.46,12.46,0,0,1,3.688-2.832,8.376,8.376,0,0,1,3.158-.591q5.582,0,5.583,6.643V96.861q0,2.017,2.934,2.241v1.345Z" transform="translate(-318.84 -68.905)" fill="#fff"></path></g><g id="Group_40110" data-name="Group 40110" transform="translate(78.835 76.917)"><path id="Path_43001" data-name="Path 43001" d="M160.616,153.36a3.187,3.187,0,0,0,0,6.372,3.1,3.1,0,0,0,2.482-1.277l1.292.99a4.439,4.439,0,0,1-3.774,1.879,4.779,4.779,0,0,1,0-9.557,4.439,4.439,0,0,1,3.774,1.88l-1.292.947a3.029,3.029,0,0,0-2.482-1.234" transform="translate(-155.923 -151.711)" fill="#fff"></path><path id="Path_43002" data-name="Path 43002" d="M179.25,156.546a4.679,4.679,0,1,1,4.693,4.778,4.552,4.552,0,0,1-4.693-4.778m7.749,0a2.981,2.981,0,0,0-3.056-3.186,3.187,3.187,0,0,0,0,6.371A2.98,2.98,0,0,0,187,156.546" transform="translate(-166.925 -151.711)" fill="#fff"></path><path id="Path_43003" data-name="Path 43003" d="M214.544,161.312h-1.607v-6.128l-2.425,5.037h-1.105l-2.439-5.051v6.142h-1.592v-9.327h1.636l2.942,5.869,2.956-5.869h1.636Z" transform="translate(-179.248 -151.813)" fill="#fff"></path><path id="Path_43004" data-name="Path 43004" d="M238.629,154.984a2.81,2.81,0,0,1-2.784,2.984h-2.7v3.344h-1.593v-9.328h4.29a2.814,2.814,0,0,1,2.784,3m-1.593,0a1.407,1.407,0,0,0-1.435-1.449h-2.454v2.885h2.424a1.419,1.419,0,0,0,1.464-1.435" transform="translate(-191.596 -151.813)" fill="#fff"></path><path id="Path_43005" data-name="Path 43005" d="M259.436,159.848v1.464h-6.184v-9.328h1.593v7.864Z" transform="translate(-201.83 -151.813)" fill="#fff"></path><rect id="Rectangle_21150" data-name="Rectangle 21150" width="1.593" height="9.327" transform="translate(61.995 0.174)" fill="#fff"></rect><path id="Path_43006" data-name="Path 43006" d="M290.692,159.518H286.7l-.718,1.794h-1.693l3.788-9.327H289.3l3.8,9.327h-1.693Zm-.574-1.464L288.7,154.5l-1.421,3.558Z" transform="translate(-216.471 -151.813)" fill="#fff"></path><path id="Path_43007" data-name="Path 43007" d="M316.138,151.985v9.327h-1.55l-4.29-6.558v6.558h-1.592v-9.327h1.55l4.29,6.558v-6.558Z" transform="translate(-227.987 -151.813)" fill="#fff"></path><path id="Path_43008" data-name="Path 43008" d="M336.046,153.36a3.187,3.187,0,0,0,0,6.372,3.1,3.1,0,0,0,2.482-1.277l1.292.99a4.438,4.438,0,0,1-3.774,1.879,4.779,4.779,0,0,1,0-9.557,4.439,4.439,0,0,1,3.774,1.88l-1.292.947a3.029,3.029,0,0,0-2.482-1.234" transform="translate(-238.669 -151.711)" fill="#fff"></path><path id="Path_43009" data-name="Path 43009" d="M357.17,153.448v2.468h4.32v1.463h-4.32v2.468h4.621v1.464h-6.214v-9.328h6.214v1.463Z" transform="translate(-250.095 -151.813)" fill="#fff"></path><path id="Path_43010" data-name="Path 43010" d="M387.935,158.188a3.269,3.269,0,0,0,2.827,1.535c1.277,0,1.721-.473,1.721-1.219,0-.919-1.592-1.191-2.338-1.435-.79-.244-3.143-.675-3.143-2.683,0-1.909,1.65-2.726,3.587-2.726a3.793,3.793,0,0,1,3.573,1.965l-1.277.8a2.885,2.885,0,0,0-2.482-1.162c-1.033,0-1.579.387-1.579,1.047,0,.89,1.464,1.134,2.268,1.377.746.244,3.171.79,3.171,2.741,0,1.908-1.435,2.9-3.674,2.9a4.022,4.022,0,0,1-3.946-2.238Z" transform="translate(-264.748 -151.659)" fill="#fff"></path><path id="Path_43011" data-name="Path 43011" d="M410.939,153.448v2.468h4.32v1.463h-4.32v2.468h4.621v1.464h-6.214v-9.328h6.214v1.463Z" transform="translate(-275.456 -151.813)" fill="#fff"></path><path id="Path_43012" data-name="Path 43012" d="M435.347,161.313l-2.167-3.344h-1.765v3.344h-1.593v-9.328h4.405a3.027,3.027,0,0,1,.732,5.883l2.239,3.444Zm-3.932-4.893h2.569a1.442,1.442,0,0,0,0-2.885h-2.569Z" transform="translate(-285.114 -151.813)" fill="#fff"></path><path id="Path_43013" data-name="Path 43013" d="M459.169,151.985l-3.7,9.327H454.19l-3.7-9.327h1.693l2.641,6.715,2.654-6.715Z" transform="translate(-294.862 -151.813)" fill="#fff"></path><rect id="Rectangle_21151" data-name="Rectangle 21151" width="1.593" height="9.327" transform="translate(168.409 0.174)" fill="#fff"></rect><path id="Path_43014" data-name="Path 43014" d="M490.945,153.36a3.187,3.187,0,0,0,0,6.372,3.1,3.1,0,0,0,2.482-1.277l1.292.99a4.438,4.438,0,0,1-3.774,1.879,4.779,4.779,0,0,1,0-9.557,4.439,4.439,0,0,1,3.774,1.88l-1.292.947a3.028,3.028,0,0,0-2.482-1.234" transform="translate(-311.731 -151.711)" fill="#fff"></path><path id="Path_43015" data-name="Path 43015" d="M512.069,153.448v2.468h4.319v1.463h-4.319v2.468h4.621v1.464h-6.213v-9.328h6.213v1.463Z" transform="translate(-323.157 -151.813)" fill="#fff"></path><path id="Path_43016" data-name="Path 43016" d="M531.321,158.188a3.269,3.269,0,0,0,2.827,1.535c1.277,0,1.721-.473,1.721-1.219,0-.919-1.592-1.191-2.338-1.435-.79-.244-3.143-.675-3.143-2.683,0-1.909,1.65-2.726,3.587-2.726a3.793,3.793,0,0,1,3.573,1.965l-1.277.8a2.886,2.886,0,0,0-2.482-1.162c-1.033,0-1.579.387-1.579,1.047,0,.89,1.463,1.134,2.267,1.377.746.244,3.171.79,3.171,2.741,0,1.908-1.435,2.9-3.674,2.9a4.021,4.021,0,0,1-3.945-2.238Z" transform="translate(-332.38 -151.659)" fill="#fff"></path></g></g></g></g></svg>